<svg width="70" height="70" viewBox="0 0 70 70" fill="none" xmlns="http://www.w3.org/2000/svg">
<path d="M61.4264 35.3934C62.6472 35.5308 63.8616 35.7035 65.0696 35.9115V36.0984C63.8692 35.8933 62.6549 35.723 61.4264 35.5873C59.096 35.3293 56.7481 35.1988 54.3975 35.1965H54.3181C46.7654 35.2014 39.3024 36.5712 32.4362 39.213C31.0133 39.7584 29.6225 40.3546 28.2638 41.0016C23.7596 43.1466 19.6448 45.8225 16.0449 48.9478C13.6113 51.0601 11.4302 53.3678 9.53312 55.8376C9.29257 56.1497 9.05723 56.4648 8.8271 56.7829C7.90113 58.058 7.0525 59.3716 6.28446 60.7187C4.64159 63.601 3.38036 66.6261 2.52341 69.7394C2.50296 69.8061 2.48492 69.8738 2.46688 69.9414C2.46207 69.9606 2.45605 69.9808 2.45124 70L2.2167 69.9556C2.21791 69.9505 2.21911 69.9465 2.22031 69.9414C2.23835 69.8738 2.25639 69.8071 2.27564 69.7394C3.15157 66.5499 4.44562 63.4517 6.13411 60.5015C6.94423 59.0817 7.84315 57.6979 8.8271 56.3577C9.05803 56.0426 9.29337 55.7299 9.53312 55.4195C11.4297 52.9703 13.6044 50.6812 16.0269 48.5842C17.5082 47.3018 19.0799 46.0951 20.7333 44.9707L20.7345 44.9697C23.0954 43.3653 25.6142 41.9321 28.2638 40.6855C29.386 40.1563 30.5242 39.6655 31.6784 39.213C38.7984 36.4126 46.5688 34.9716 54.4311 34.9935C56.7708 34.9988 59.1075 35.1324 61.4264 35.3934Z" fill="#3F3D56"/>
<path d="M36.0966 12.4948C39.7046 12.4948 42.6295 10.0389 42.6295 7.00931C42.6295 3.97975 39.7046 1.52381 36.0966 1.52381C32.4886 1.52381 29.5638 3.97975 29.5638 7.00931C29.5638 10.0389 32.4886 12.4948 36.0966 12.4948Z" fill="#FF6584"/>
<path d="M7.95159 68.754C8.15534 69.3864 8.8532 69.778 8.8532 69.778C8.8532 69.778 9.22073 69.1444 9.01698 68.5119C8.81324 67.8795 8.11538 67.4879 8.11538 67.4879C8.11538 67.4879 7.74785 68.1216 7.95159 68.754Z" fill="#3F3D56"/>
<path d="M8.25098 68.618C8.81005 69.075 8.87834 69.7775 8.87834 69.7775C8.87834 69.7775 8.04019 69.7391 7.48112 69.2821C6.92205 68.8251 6.85376 68.1226 6.85376 68.1226C6.85376 68.1226 7.69191 68.1611 8.25098 68.618Z" fill="#FF6363"/>
<path d="M23.4673 68.754C23.671 69.3864 24.3689 69.778 24.3689 69.778C24.3689 69.778 24.7364 69.1444 24.5327 68.5119C24.3289 67.8795 23.6311 67.4879 23.6311 67.4879C23.6311 67.4879 23.2635 68.1216 23.4673 68.754Z" fill="#3F3D56"/>
<path d="M23.7666 68.618C24.3257 69.075 24.394 69.7775 24.394 69.7775C24.394 69.7775 23.5559 69.7391 22.9968 69.2821C22.4377 68.8251 22.3694 68.1226 22.3694 68.1226C22.3694 68.1226 23.2076 68.1611 23.7666 68.618Z" fill="#FF6363"/>
<path d="M65.0696 13.2934V19.8242L56.0741 24.9143L50.1264 28.2804L26.5438 18.38L24.0878 16.7297L33.8493 9.41091C36.4219 7.48223 39.75 6.41623 43.1988 6.41623H56.8794C57.9549 6.41623 59.0199 6.59412 60.0136 6.93973C61.0073 7.28534 61.9102 7.79191 62.6707 8.43052C63.4313 9.06912 64.0346 9.82726 64.4462 10.6616C64.8578 11.496 65.0696 12.3903 65.0696 13.2934Z" fill="#3F3D56"/>
<path d="M61.4589 16.7004L65.0696 13.405C71.3829 32.9599 71.8989 51.8649 65.0696 69.9465H60.4883L50.1481 61.265L50.2455 60.6651L54.3975 35.1965L54.4311 34.9935L56.0741 24.9143L57.0051 19.2051L61.4264 16.7297L61.4589 16.7004Z" fill="#CCCCCC"/>
<path d="M24.0878 16.7297H61.4264L61.4264 69.9469H24.0874C20.0103 50.4747 18.9859 32.3002 24.0878 16.7297Z" fill="#F2F2F2"/>
<path d="M45.459 56.952H38.5808V69.9469H45.459V56.952Z" fill="#CCCCCC"/>
<path d="M56.759 49.1137H28.2634V54.0642H56.759V49.1137Z" fill="#3F3D56"/>
<path d="M58.9355 60.942H46.786V63.0527H58.9355V60.942Z" fill="#3F3D56"/>
<path d="M37.2857 60.942H25.1362V63.0527H37.2857V60.942Z" fill="#3F3D56"/>
<path d="M56.759 39.2128H28.2634V44.1633H56.759V39.2128Z" fill="#3F3D56"/>
<path d="M56.759 29.3119H28.2634V34.2624H56.759V29.3119Z" fill="#3F3D56"/>
<path d="M56.759 19.411H28.2634V24.3614H56.759V19.411Z" fill="#3F3D56"/>
<path d="M65.0696 69.7395H3.68205e-06V69.9414H65.0696V69.7395Z" fill="#3F3D56"/>
<path d="M9.53312 46.4183H8.82652V69.8543H9.53312V46.4183Z" fill="#3F3D56"/>
<path d="M16.0542 49.405C16.0992 57.6 9.23277 64.27 9.23277 64.27C9.23277 64.27 2.29341 57.6534 2.24844 49.4584C2.20346 41.2634 9.06988 34.5934 9.06988 34.5934C9.80058 32.4221 17.6188 36.4271 16.0542 49.405Z" fill="#FF6363"/>
<path d="M16.0542 49.405C16.0992 57.6 9.23277 64.27 9.23277 64.27C9.23277 64.27 2.29341 57.6534 2.24844 49.4584C2.20346 41.2634 9.06988 34.5934 9.06988 34.5934C9.80058 32.4221 17.6188 36.4271 16.0542 49.405Z" fill="black"/>
<path d="M0.347604 46.4179H3.68205e-06V69.8546H0.347604V46.4179Z" fill="#3F3D56"/>
<path d="M6.86899 49.4053C15.1493 51.2063 6.25045 55.4811 4.59577 57.9696C3.48015 60.1064 2.0532 62.1198 0.347601 63.9616C0.156361 64.1636 0.0469096 64.2696 0.0469096 64.2696L0 64.2242V34.7077C1.82216 36.5947 3.34215 38.674 4.52119 40.8925C5.80094 43.2982 3.21293 48.6101 6.86899 49.4053Z" fill="#FF6363"/>
<path d="M16.9794 28.2218C16.9794 28.2218 12.4859 28.1885 6.91952 28.2097C4.24457 28.2198 1.80897 28.241 7.67862e-06 28.2612V25.6485C1.94608 24.3972 4.51278 23.4004 6.90027 24.5295C11.5911 26.7493 16.9794 28.2218 16.9794 28.2218Z" fill="#F2F2F2"/>
<path d="M27.1265 4.1731C21.5605 4.19464 17.03 4.2637 17.03 4.2637C17.03 4.2637 22.4153 -1.72598 27.1064 0.49315C31.7974 2.71228 37.1863 4.18569 37.1863 4.18569C37.1863 4.18569 32.6926 4.15156 27.1265 4.1731Z" fill="#F2F2F2"/>
<path d="M42.5622 6.22232L57.4991 5.60906C59.5592 5.52448 61.5814 6.09566 63.1618 7.20849C64.7422 8.32133 65.7644 9.89388 66.0241 11.612L67.836 23.5963L61.4721 16.7065L61.4589 16.7004L42.0376 8.24227C40.8816 7.73895 41.2617 6.27577 42.5622 6.22232Z" fill="#3F3D56"/>
<path d="M50.1553 10.344H38.0058V12.4547H50.1553V10.344Z" fill="#F2F2F2"/>
<path d="M45.4645 55.6114H39.8115C35.8743 42.7054 35.8743 30.0475 39.8115 17.6377H45.4645C49.0632 30.5137 49.1923 43.1794 45.4645 55.6114Z" fill="#F2F2F2"/>
</svg>
